<mxfile host="app.diagrams.net" agent="Mozilla/5.0 (Windows NT 10.0; Win64; x64) AppleWebKit/537.36 (KHTML, like Gecko) Chrome/131.0.0.0 Safari/537.36" version="25.0.3">
  <diagram name="หน้า-1" id="CkA1Z_aYUSfMJFq28Sv4">
    <mxGraphModel dx="1034" dy="446" grid="1" gridSize="10" guides="1" tooltips="1" connect="1" arrows="1" fold="1" page="1" pageScale="1" pageWidth="827" pageHeight="1169" math="0" shadow="0">
      <root>
        <mxCell id="0" />
        <mxCell id="1" parent="0" />
        <mxCell id="ufUnNCeIlFKPlVj57-_y-3" value="" style="edgeStyle=orthogonalEdgeStyle;rounded=0;orthogonalLoop=1;jettySize=auto;html=1;" edge="1" parent="1" source="ufUnNCeIlFKPlVj57-_y-1" target="ufUnNCeIlFKPlVj57-_y-2">
          <mxGeometry relative="1" as="geometry" />
        </mxCell>
        <mxCell id="ufUnNCeIlFKPlVj57-_y-1" value="start" style="ellipse;whiteSpace=wrap;html=1;" vertex="1" parent="1">
          <mxGeometry x="350" y="90" width="120" height="80" as="geometry" />
        </mxCell>
        <mxCell id="ufUnNCeIlFKPlVj57-_y-5" value="" style="edgeStyle=orthogonalEdgeStyle;rounded=0;orthogonalLoop=1;jettySize=auto;html=1;" edge="1" parent="1" source="ufUnNCeIlFKPlVj57-_y-2" target="ufUnNCeIlFKPlVj57-_y-4">
          <mxGeometry relative="1" as="geometry" />
        </mxCell>
        <mxCell id="ufUnNCeIlFKPlVj57-_y-2" value="สร้าง struct employee" style="whiteSpace=wrap;html=1;" vertex="1" parent="1">
          <mxGeometry x="350" y="260" width="120" height="60" as="geometry" />
        </mxCell>
        <mxCell id="ufUnNCeIlFKPlVj57-_y-7" value="" style="edgeStyle=orthogonalEdgeStyle;rounded=0;orthogonalLoop=1;jettySize=auto;html=1;" edge="1" parent="1" source="ufUnNCeIlFKPlVj57-_y-11" target="ufUnNCeIlFKPlVj57-_y-6">
          <mxGeometry relative="1" as="geometry" />
        </mxCell>
        <mxCell id="ufUnNCeIlFKPlVj57-_y-4" value="สร้างฟังก์ชั่น หาคนที่จ่ายภาษีมากที่สุด" style="whiteSpace=wrap;html=1;" vertex="1" parent="1">
          <mxGeometry x="350" y="400" width="120" height="60" as="geometry" />
        </mxCell>
        <mxCell id="ufUnNCeIlFKPlVj57-_y-9" value="" style="edgeStyle=orthogonalEdgeStyle;rounded=0;orthogonalLoop=1;jettySize=auto;html=1;" edge="1" parent="1" source="ufUnNCeIlFKPlVj57-_y-6" target="ufUnNCeIlFKPlVj57-_y-8">
          <mxGeometry relative="1" as="geometry" />
        </mxCell>
        <mxCell id="ufUnNCeIlFKPlVj57-_y-6" value="กรอกชื่อพนักงาน&lt;div&gt;กรอกเงินเดื่อน&lt;/div&gt;" style="shape=parallelogram;perimeter=parallelogramPerimeter;whiteSpace=wrap;html=1;fixedSize=1;" vertex="1" parent="1">
          <mxGeometry x="350" y="540" width="120" height="60" as="geometry" />
        </mxCell>
        <mxCell id="ufUnNCeIlFKPlVj57-_y-15" value="" style="edgeStyle=orthogonalEdgeStyle;rounded=0;orthogonalLoop=1;jettySize=auto;html=1;" edge="1" parent="1" source="ufUnNCeIlFKPlVj57-_y-8" target="ufUnNCeIlFKPlVj57-_y-14">
          <mxGeometry relative="1" as="geometry" />
        </mxCell>
        <mxCell id="ufUnNCeIlFKPlVj57-_y-8" value="ผู้ใช้กรอก -1 ใช่หรือไม่" style="rhombus;whiteSpace=wrap;html=1;" vertex="1" parent="1">
          <mxGeometry x="335" y="680" width="150" height="130" as="geometry" />
        </mxCell>
        <mxCell id="ufUnNCeIlFKPlVj57-_y-10" value="" style="edgeStyle=orthogonalEdgeStyle;rounded=0;orthogonalLoop=1;jettySize=auto;html=1;" edge="1" parent="1" source="ufUnNCeIlFKPlVj57-_y-4" target="ufUnNCeIlFKPlVj57-_y-11">
          <mxGeometry relative="1" as="geometry">
            <mxPoint x="410" y="460" as="sourcePoint" />
            <mxPoint x="410" y="540" as="targetPoint" />
          </mxGeometry>
        </mxCell>
        <mxCell id="ufUnNCeIlFKPlVj57-_y-11" value="" style="shape=waypoint;sketch=0;fillStyle=solid;size=6;pointerEvents=1;points=[];fillColor=none;resizable=0;rotatable=0;perimeter=centerPerimeter;snapToPoint=1;" vertex="1" parent="1">
          <mxGeometry x="400" y="480" width="20" height="20" as="geometry" />
        </mxCell>
        <mxCell id="ufUnNCeIlFKPlVj57-_y-12" style="edgeStyle=orthogonalEdgeStyle;rounded=0;orthogonalLoop=1;jettySize=auto;html=1;exitX=0;exitY=0.5;exitDx=0;exitDy=0;entryX=0.2;entryY=1.05;entryDx=0;entryDy=0;entryPerimeter=0;" edge="1" parent="1" source="ufUnNCeIlFKPlVj57-_y-8" target="ufUnNCeIlFKPlVj57-_y-11">
          <mxGeometry relative="1" as="geometry">
            <Array as="points">
              <mxPoint x="270" y="745" />
              <mxPoint x="270" y="490" />
            </Array>
          </mxGeometry>
        </mxCell>
        <mxCell id="ufUnNCeIlFKPlVj57-_y-13" value="T" style="text;html=1;align=center;verticalAlign=middle;resizable=0;points=[];autosize=1;strokeColor=none;fillColor=none;" vertex="1" parent="1">
          <mxGeometry x="315" y="698" width="30" height="30" as="geometry" />
        </mxCell>
        <mxCell id="ufUnNCeIlFKPlVj57-_y-18" value="" style="edgeStyle=orthogonalEdgeStyle;rounded=0;orthogonalLoop=1;jettySize=auto;html=1;" edge="1" parent="1" source="ufUnNCeIlFKPlVj57-_y-14" target="ufUnNCeIlFKPlVj57-_y-17">
          <mxGeometry relative="1" as="geometry" />
        </mxCell>
        <mxCell id="ufUnNCeIlFKPlVj57-_y-14" value="คำนวณภาษีรายปีด้วย สูตร&lt;div&gt;&lt;span style=&quot;background-color: initial;&quot;&gt;salaryPerMonth * 12 * 0.07&lt;/span&gt;&lt;/div&gt;" style="whiteSpace=wrap;html=1;" vertex="1" parent="1">
          <mxGeometry x="590" y="712.5" width="260" height="65" as="geometry" />
        </mxCell>
        <mxCell id="ufUnNCeIlFKPlVj57-_y-20" value="" style="edgeStyle=orthogonalEdgeStyle;rounded=0;orthogonalLoop=1;jettySize=auto;html=1;" edge="1" parent="1" source="ufUnNCeIlFKPlVj57-_y-17" target="ufUnNCeIlFKPlVj57-_y-19">
          <mxGeometry relative="1" as="geometry" />
        </mxCell>
        <mxCell id="ufUnNCeIlFKPlVj57-_y-17" value="ตรวจสอบหาพนักงานที่จ่ายภาษีเยอะสุด" style="whiteSpace=wrap;html=1;" vertex="1" parent="1">
          <mxGeometry x="660" y="860" width="120" height="60" as="geometry" />
        </mxCell>
        <mxCell id="ufUnNCeIlFKPlVj57-_y-23" style="edgeStyle=orthogonalEdgeStyle;rounded=0;orthogonalLoop=1;jettySize=auto;html=1;exitX=0.5;exitY=1;exitDx=0;exitDy=0;entryX=0.5;entryY=0;entryDx=0;entryDy=0;" edge="1" parent="1" source="ufUnNCeIlFKPlVj57-_y-19" target="ufUnNCeIlFKPlVj57-_y-22">
          <mxGeometry relative="1" as="geometry" />
        </mxCell>
        <mxCell id="ufUnNCeIlFKPlVj57-_y-19" value="แสดงผลลัพธ์" style="shape=parallelogram;perimeter=parallelogramPerimeter;whiteSpace=wrap;html=1;fixedSize=1;" vertex="1" parent="1">
          <mxGeometry x="660" y="1000" width="120" height="60" as="geometry" />
        </mxCell>
        <mxCell id="ufUnNCeIlFKPlVj57-_y-22" value="end" style="ellipse;whiteSpace=wrap;html=1;" vertex="1" parent="1">
          <mxGeometry x="360" y="1160" width="120" height="80" as="geometry" />
        </mxCell>
      </root>
    </mxGraphModel>
  </diagram>
</mxfile>
